<svg width="32" height="32" viewBox="0 0 32 32" fill="none" xmlns="http://www.w3.org/2000/svg">
<path d="M2 16C2 9.39978 2 6.10044 4.05023 4.05022C6.10045 2 9.40134 2 16 2C22.5987 2 25.8996 2 27.9498 4.05022C30 6.10044 30 9.40133 30 16C30 22.5987 30 25.8996 27.9498 27.9498C25.8996 30 22.5987 30 16 30C9.40134 30 6.10045 30 4.05023 27.9498C2 25.8996 2 22.5987 2 16Z" stroke="#9547BB" stroke-width="4" stroke-linejoin="round"/>
<path d="M16 23C16 23 8.22223 18.058 8.22223 13.2778C8.22223 10.9149 9.86023 9 12.1111 9C13.2778 9 14.4444 9.41222 16 11.0596C17.5556 9.41067 18.7222 9 19.8889 9C22.1398 9 23.7778 10.9149 23.7778 13.2778C23.7778 18.058 16 23 16 23Z" stroke="#9547BB" stroke-width="4" stroke-linejoin="round"/>
</svg>
