<svg width="43" height="26" viewBox="0 0 43 26" fill="none" xmlns="http://www.w3.org/2000/svg">
<path d="M34.099 0.414777L42.0753 7.49789C42.2406 7.64704 42.3728 7.82913 42.4635 8.03244C42.5541 8.23576 42.6012 8.4558 42.6018 8.67841V21.4408C42.6081 21.9708 42.5099 22.4969 42.3129 22.989C42.1159 23.4811 41.8239 23.9296 41.4536 24.3088C41.0832 24.6881 40.6418 24.9906 40.1545 25.1993C39.6672 25.4079 39.1436 25.5185 38.6136 25.5247H14.6846C14.1546 25.5185 13.631 25.4079 13.1437 25.1993C12.6564 24.9906 12.215 24.6881 11.8446 24.3088C11.4743 23.9296 11.1823 23.4811 10.9853 22.989C10.7883 22.4969 10.6901 21.9708 10.6964 21.4408V4.08396C10.6901 3.55392 10.7883 3.02783 10.9853 2.53572C11.1823 2.04362 11.4743 1.59514 11.8446 1.21591C12.215 0.836668 12.6564 0.534095 13.1437 0.325468C13.631 0.116842 14.1546 0.00624778 14.6846 0H33.0302C33.4255 0.00103217 33.8064 0.148845 34.099 0.414777ZM21.8633 9.57177V11.1671H20.268C19.8449 11.1671 19.4392 11.3351 19.14 11.6343C18.8408 11.9335 18.6728 12.3393 18.6728 12.7624C18.6728 13.1855 18.8408 13.5912 19.14 13.8904C19.4392 14.1896 19.8449 14.3577 20.268 14.3577H21.8633V15.953C21.8633 16.3761 22.0314 16.7818 22.3305 17.081C22.6297 17.3802 23.0355 17.5483 23.4586 17.5483C23.8817 17.5483 24.2874 17.3802 24.5866 17.081C24.8858 16.7818 25.0538 16.3761 25.0538 15.953V14.3577H26.6491C27.0722 14.3577 27.4779 14.1896 27.7771 13.8904C28.0763 13.5912 28.2444 13.1855 28.2444 12.7624C28.2444 12.3393 28.0763 11.9335 27.7771 11.6343C27.4779 11.3351 27.0722 11.1671 26.6491 11.1671H25.0538V9.57177C25.0538 9.14868 24.8858 8.74291 24.5866 8.44373C24.2874 8.14455 23.8817 7.97648 23.4586 7.97648C23.0355 7.97648 22.6297 8.14455 22.3305 8.44373C22.0314 8.74291 21.8633 9.14868 21.8633 9.57177ZM33.0302 8.43911C33.0626 8.76799 33.2228 9.071 33.4764 9.28285C33.7301 9.49471 34.0568 9.59846 34.3861 9.57177H39.4112L33.0302 3.60537V8.43911Z" fill="#8657B5"/>
<path d="M0.266886 7.04192C0.299887 5.55342 1.88958 4.62155 3.2045 5.31991L13.8178 10.9566C15.2002 11.6909 15.2414 13.6568 13.8911 14.4484L3.01146 20.8259C1.66108 21.6175 -0.0341706 20.6211 0.000523968 19.0562L0.266886 7.04192Z" fill="#588F9F"/>
<path d="M1.7666 7.0752C1.77485 6.70308 2.17225 6.46995 2.50098 6.64453L9.19629 10.2002V15.4619L2.25293 19.5322C1.91547 19.7299 1.49163 19.4808 1.5 19.0898L1.7666 7.0752ZM23.459 6.47656C22.6381 6.47656 21.85 6.80233 21.2695 7.38281C20.6892 7.96318 20.3634 8.75057 20.3633 9.57129V9.66699H20.2676C19.4469 9.66711 18.6595 9.99293 18.0791 10.5732C17.4986 11.1537 17.1729 11.9418 17.1729 12.7627C17.1729 13.5835 17.4987 14.3708 18.0791 14.9512C18.6595 15.5315 19.4468 15.8573 20.2676 15.8574H20.3633V15.9531C20.3633 16.7739 20.6892 17.5612 21.2695 18.1416C21.85 18.7221 22.6381 19.0479 23.459 19.0479C24.2798 19.0477 25.0671 18.722 25.6475 18.1416C26.2278 17.5612 26.5537 16.7739 26.5537 15.9531V15.8574H26.6494C27.4702 15.8573 28.2575 15.5316 28.8379 14.9512C29.4183 14.3708 29.7441 13.5835 29.7441 12.7627C29.7441 11.9418 29.4184 11.1537 28.8379 10.5732C28.2575 9.99294 27.4701 9.66708 26.6494 9.66699H26.5537V9.57129C26.5536 8.75055 26.2278 7.96318 25.6475 7.38281C25.0671 6.80245 24.2797 6.47667 23.459 6.47656ZM13.1143 12.2812C13.4598 12.4648 13.4701 12.9563 13.1328 13.1543L12.1963 13.7031V11.793L13.1143 12.2812ZM33.0264 1.5L33.0605 1.50684C33.0712 1.51099 33.0812 1.51665 33.0898 1.52441L33.0967 1.53027L33.1025 1.53613L41.0693 8.61133H41.0703C41.0802 8.62025 41.0883 8.63143 41.0938 8.64355C41.0991 8.65554 41.1015 8.66854 41.1016 8.68164V9.09863L40.4355 8.47656L34.0547 2.50977L32.9746 1.5H33.0264ZM12.1963 4.06641C12.1923 3.73335 12.2541 3.40199 12.3779 3.09277C12.5017 2.78372 12.6854 2.50186 12.918 2.26367C13.1506 2.02547 13.4283 1.83515 13.7344 1.7041C13.9638 1.60593 14.206 1.542 14.4531 1.51465L14.7021 1.5H31.5303V8.5127L31.5371 8.58594C31.608 9.30609 31.9593 9.96959 32.5146 10.4336C33.039 10.8716 33.7059 11.0954 34.3857 11.0703V11.0713H41.1016V21.459C41.1055 21.7919 41.0437 22.1225 40.9199 22.4316C40.7962 22.7406 40.6134 23.0226 40.3809 23.2607C40.1482 23.499 39.8705 23.6892 39.5645 23.8203C39.2583 23.9514 38.9287 24.0205 38.5957 24.0244H14.7021C14.3693 24.0205 14.0404 23.9513 13.7344 23.8203C13.4282 23.6892 13.1507 23.499 12.918 23.2607C12.6853 23.0225 12.5017 22.7408 12.3779 22.4316C12.2542 22.1225 12.1924 21.7919 12.1963 21.459V17.1797L14.6494 15.7422C17.0125 14.3569 16.9406 10.9167 14.5215 9.63184L12.1963 8.39648V4.06641Z" stroke="#8657B5" stroke-width="3"/>
</svg>
