<svg width="124" height="19" viewBox="0 0 124 19" fill="none" xmlns="http://www.w3.org/2000/svg">
<path d="M-2.78279e-06 3.42685V0.257459H14.9325V3.42685H9.36612V18.4393H5.5664V3.42685H-2.78279e-06ZM18.3039 18.4393H14.1846L20.4612 0.257459H25.415L31.6828 18.4393H27.5635L23.0091 4.41229H22.8671L18.3039 18.4393ZM18.0464 11.2926H27.7765V14.2933H18.0464V11.2926ZM33.8712 18.4393V0.257459H41.0445C42.4235 0.257459 43.5983 0.520835 44.569 1.04759C45.5396 1.56842 46.2794 2.29344 46.7884 3.22266C47.3034 4.14595 47.5608 5.21129 47.5608 6.41868C47.5608 7.62607 47.3004 8.69141 46.7796 9.6147C46.2587 10.538 45.5041 11.2571 44.5157 11.772C43.5332 12.2869 42.3436 12.5444 40.9468 12.5444H36.3747V9.46378H40.3254C41.0652 9.46378 41.6748 9.33653 42.1542 9.08203C42.6395 8.82162 43.0006 8.46354 43.2373 8.00781C43.48 7.54617 43.6013 7.01646 43.6013 6.41868C43.6013 5.81499 43.48 5.28823 43.2373 4.83842C43.0006 4.3827 42.6395 4.03054 42.1542 3.78196C41.6689 3.52746 41.0534 3.40022 40.3076 3.40022H37.7153V18.4393H33.8712ZM50.0577 18.4393V0.257459H62.3091V3.42685H53.9018V7.75923H61.6788V10.9286H53.9018V15.2699H62.3446V18.4393H50.0577ZM77.6234 0.00887924C78.5585 0.00887924 79.4582 0.165721 80.3223 0.479404C81.1923 0.793089 81.9676 1.29321 82.6483 1.97976C83.3348 2.66631 83.8764 3.57777 84.2729 4.71414C84.6754 5.84458 84.8796 7.23248 84.8855 8.87784C84.8855 10.4226 84.7109 11.8016 84.3617 13.0149C84.0184 14.2223 83.5242 15.2492 82.8791 16.0955C82.234 16.9419 81.4557 17.587 80.5442 18.0309C79.6328 18.4689 78.6148 18.6879 77.4902 18.6879C76.2769 18.6879 75.2057 18.4541 74.2765 17.9865C73.3472 17.513 72.5985 16.8709 72.0304 16.06C71.4681 15.2433 71.1278 14.3259 71.0094 13.3079H74.8002C74.9482 13.9708 75.2589 14.4857 75.7324 14.8526C76.2059 15.2137 76.7918 15.3942 77.4902 15.3942C78.6739 15.3942 79.5736 14.8793 80.1891 13.8494C80.8046 12.8137 81.1154 11.3962 81.1213 9.59695H80.997C80.7247 10.1296 80.3578 10.5883 79.8961 10.973C79.4345 11.3518 78.9048 11.6448 78.307 11.8519C77.7151 12.0591 77.0848 12.1626 76.416 12.1626C75.3448 12.1626 74.3889 11.9111 73.5485 11.408C72.708 10.905 72.0452 10.2125 71.5598 9.33061C71.0745 8.44875 70.8319 7.44259 70.8319 6.31215C70.8259 5.09292 71.1071 4.00687 71.6752 3.05398C72.2434 2.10109 73.0365 1.35535 74.0545 0.816764C75.0784 0.272255 76.268 0.0029605 77.6234 0.00887924ZM77.65 3.02734C77.0523 3.02734 76.5196 3.16939 76.052 3.45348C75.5904 3.73757 75.2234 4.11932 74.9512 4.59872C74.6848 5.07813 74.5546 5.61376 74.5605 6.20561C74.5605 6.80339 74.6908 7.34198 74.9512 7.82138C75.2175 8.29486 75.5785 8.67365 76.0343 8.95774C76.4959 9.23592 77.0227 9.375 77.6145 9.375C78.0584 9.375 78.4698 9.29214 78.8485 9.12642C79.2273 8.9607 79.5558 8.73284 79.834 8.44283C80.1181 8.1469 80.34 7.80658 80.4998 7.42188C80.6596 7.03717 80.7395 6.62879 80.7395 6.19673C80.7336 5.62263 80.5975 5.09588 80.3311 4.61648C80.0648 4.13708 79.6979 3.75237 79.2303 3.46236C78.7627 3.17235 78.236 3.02734 77.65 3.02734ZM86.9629 3.42685V0.257459H101.895V3.42685H96.329V18.4393H92.5293V3.42685H86.9629Z" fill="white"/>
<path d="M107.453 0.257459V2.17507C107.453 2.71958 107.346 3.27593 107.133 3.84411C106.926 4.40637 106.648 4.93904 106.299 5.44212C105.95 5.93928 105.568 6.36245 105.154 6.71165L103.485 5.72621C103.78 5.25864 104.041 4.74077 104.266 4.17259C104.497 3.6044 104.612 2.94448 104.612 2.19283V0.257459H107.453Z" fill="#588F9F"/>
<path d="M119.906 5.48651C119.835 4.77036 119.531 4.21402 118.992 3.81747C118.453 3.42093 117.722 3.22266 116.799 3.22266C116.172 3.22266 115.642 3.31144 115.21 3.48899C114.778 3.66063 114.446 3.90033 114.216 4.2081C113.991 4.51586 113.878 4.86506 113.878 5.25568C113.866 5.5812 113.935 5.8653 114.082 6.10796C114.236 6.35062 114.446 6.56073 114.713 6.73828C114.979 6.90992 115.287 7.06084 115.636 7.19105C115.985 7.31534 116.358 7.42188 116.755 7.51066L118.388 7.90128C119.181 8.07884 119.909 8.31558 120.572 8.61151C121.235 8.90744 121.809 9.27143 122.294 9.70348C122.78 10.1355 123.156 10.6445 123.422 11.2305C123.694 11.8164 123.833 12.4882 123.839 13.2457C123.833 14.3584 123.549 15.3232 122.987 16.1399C122.431 16.9508 121.626 17.5811 120.572 18.0309C119.525 18.4748 118.261 18.6967 116.781 18.6967C115.314 18.6967 114.035 18.4718 112.946 18.022C111.863 17.5722 111.017 16.9064 110.407 16.0245C109.803 15.1367 109.487 14.0388 109.457 12.7308H113.177C113.218 13.3404 113.393 13.8494 113.701 14.2578C114.014 14.6603 114.432 14.9651 114.953 15.1722C115.479 15.3735 116.074 15.4741 116.737 15.4741C117.388 15.4741 117.953 15.3794 118.433 15.19C118.918 15.0006 119.294 14.7372 119.56 14.3999C119.826 14.0625 119.96 13.6748 119.96 13.2369C119.96 12.8285 119.838 12.4852 119.596 12.207C119.359 11.9289 119.01 11.6921 118.548 11.4968C118.092 11.3015 117.533 11.1239 116.87 10.9641L114.89 10.467C113.357 10.0941 112.147 9.51113 111.259 8.71804C110.372 7.92495 109.931 6.85665 109.937 5.51314C109.931 4.41229 110.224 3.45052 110.815 2.62784C111.413 1.80516 112.233 1.163 113.275 0.701351C114.316 0.239703 115.5 0.00887924 116.826 0.00887924C118.175 0.00887924 119.353 0.239703 120.359 0.701351C121.371 1.163 122.158 1.80516 122.721 2.62784C123.283 3.45052 123.573 4.40341 123.591 5.48651H119.906Z" fill="#9547BB"/>
</svg>
