<svg width="33" height="40" viewBox="0 0 33 40" fill="none" xmlns="http://www.w3.org/2000/svg">
<path d="M21.3948 20.0002C23.2862 20.0002 25.1002 19.2539 26.4376 17.9255C27.775 16.5971 28.5264 14.7954 28.5264 12.9167V7.08329C28.5264 5.63089 28.0768 4.21361 27.2387 3.02346C26.4006 1.83331 25.2144 0.927826 23.8408 0.429677C22.4673 -0.0684721 20.9727 -0.135203 19.5597 0.238525C18.1467 0.612253 16.8835 1.40837 15.9412 2.51903C14.999 1.40837 13.7358 0.612253 12.3227 0.238525C10.9097 -0.135203 9.41518 -0.0684721 8.04161 0.429677C6.66805 0.927826 5.48186 1.83331 4.64374 3.02346C3.80562 4.21361 3.35608 5.63089 3.35605 7.08329V12.9167C3.35608 14.3691 3.80562 15.7864 4.64374 16.9766C5.48186 18.1667 6.66805 19.0722 8.04161 19.5703C9.41518 20.0685 10.9097 20.1352 12.3227 19.7615C13.7358 19.3878 14.999 18.5916 15.9412 17.481C16.6099 18.271 17.4446 18.9059 18.3868 19.3411C19.329 19.7764 20.3557 20.0013 21.3948 20.0002ZM16.9103 16.0001C17.3775 15.0385 17.6199 13.9845 17.6192 12.9167V7.08329C17.6192 5.97826 17.3642 4.93241 16.9103 3.99989C17.5718 3.05043 18.5214 2.33576 19.6207 1.96014C20.7199 1.58452 21.9112 1.56761 23.0208 1.91187C24.1304 2.25614 25.1003 2.94356 25.7888 3.87386C26.4773 4.80416 26.8486 5.92865 26.8484 7.08329V7.91664C26.8484 7.53361 26.7724 7.15433 26.6248 6.80045C26.4773 6.44658 26.261 6.12504 25.9883 5.8542C25.7156 5.58336 25.3919 5.36851 25.0356 5.22193C24.6793 5.07536 24.2975 4.99991 23.9118 4.99991C23.5262 4.99991 23.1443 5.07536 22.7881 5.22193C22.4318 5.36851 22.1081 5.58336 21.8354 5.8542C21.5627 6.12504 21.3464 6.44658 21.1988 6.80045C21.0512 7.15433 20.9753 7.53361 20.9753 7.91664V12.0834C20.9753 12.4664 21.0512 12.8457 21.1988 13.1996C21.3464 13.5534 21.5627 13.875 21.8354 14.1458C22.1081 14.4167 22.4318 14.6315 22.7881 14.7781C23.1443 14.9247 23.5262 15.0001 23.9118 15.0001C24.2975 15.0001 24.6793 14.9247 25.0356 14.7781C25.3919 14.6315 25.7156 14.4167 25.9883 14.1458C26.261 13.875 26.4773 13.5534 26.6248 13.1996C26.7724 12.8457 26.8484 12.4664 26.8484 12.0834V12.9167C26.8486 14.0714 26.4773 15.1959 25.7888 16.1262C25.1003 17.0565 24.1304 17.7439 23.0208 18.0881C21.9112 18.4324 20.7199 18.4155 19.6207 18.0399C18.5214 17.6643 17.5718 16.9496 16.9103 16.0001ZM15.9412 12.9167C15.9412 14.3534 15.3666 15.7311 14.3439 16.747C13.3212 17.7628 11.934 18.3335 10.4876 18.3335C9.04127 18.3335 7.65413 17.7628 6.63138 16.747C5.60864 15.7311 5.03407 14.3534 5.03407 12.9167V7.08329C5.03407 5.64667 5.60864 4.26889 6.63138 3.25305C7.65413 2.23721 9.04127 1.66651 10.4876 1.66651C11.934 1.66651 13.3212 2.23721 14.3439 3.25305C15.3666 4.26889 15.9412 5.64667 15.9412 7.08329V7.91664C15.9412 7.14307 15.6318 6.40119 15.0811 5.8542C14.5304 5.30721 13.7835 4.99991 13.0047 4.99991C12.2259 4.99991 11.4789 5.30721 10.9282 5.8542C10.3775 6.40119 10.0681 7.14307 10.0681 7.91664V12.0834C10.0681 12.8569 10.3775 13.5988 10.9282 14.1458C11.4789 14.6928 12.2259 15.0001 13.0047 15.0001C13.7835 15.0001 14.5304 14.6928 15.0811 14.1458C15.6318 13.5988 15.9412 12.8569 15.9412 12.0834V12.9167Z" fill="#8C4DA5"/>
<path fill-rule="evenodd" clip-rule="evenodd" d="M5.65494 16.7329C4.86627 16.7962 4.36789 16.9162 3.96852 17.1195C3.17877 17.5191 2.53671 18.1568 2.13444 18.9412C1.92973 19.3396 1.80723 19.8346 1.74347 20.6163C1.67634 21.408 1.67634 22.4197 1.67634 23.833V31.1665C1.67634 32.5799 1.67634 33.5915 1.74347 34.3832C1.80723 35.1649 1.92973 35.6599 2.13444 36.0583C2.53699 36.8421 3.17902 37.4792 3.96852 37.8783C4.36789 38.0816 4.86627 38.2033 5.65494 38.2683C6.452 38.3333 7.46888 38.3333 8.89352 38.3333H24.1065C25.5294 38.3333 26.548 38.3333 27.3451 38.2666C28.1337 38.2033 28.6321 38.0833 29.0315 37.8783C29.821 37.4792 30.463 36.8421 30.8656 36.0583C31.0686 35.6599 31.1928 35.1649 31.2565 34.3832C31.322 33.5915 31.3237 32.5799 31.3237 31.1665V23.833C31.3237 22.4197 31.322 21.408 31.2565 20.6163C31.1928 19.8346 31.0686 19.3396 30.8656 18.9412C30.4633 18.1568 29.8212 17.5191 29.0315 17.1195C28.6321 16.9179 28.1321 16.7962 27.3451 16.7312C26.548 16.6662 26.5933 18.3335 25.1703 18.3335L23.4923 19.1669L21.3948 19.5582L17.6192 18.3335L15.9412 16.6668L10.9071 19.1669L7.5511 19.1664L6.71209 18.3329C5.28913 18.3329 6.452 16.6662 5.65326 16.7329M8.39011 18.3331L11.7462 18.3335L14.6475 16.9044L15.9412 15.8335L17.6192 17.5002L20.1363 18.3335H22.6533C24.0326 18.3335 26.5957 15.6345 27.4827 15.0712C28.372 15.1428 29.1171 15.2928 29.7933 15.6345C30.8988 16.1939 31.7975 17.0865 32.3607 18.1846C32.7047 18.8562 32.8557 19.5963 32.9295 20.4813C33 21.348 33 22.428 33 23.7963V31.2032C33 32.5732 33 33.6515 32.9295 34.5199C32.8557 35.4032 32.7047 36.1433 32.359 36.8149C31.7963 37.9127 30.8982 38.8054 29.7933 39.365C29.1171 39.7067 28.3737 39.8567 27.481 39.9283C26.6084 40 25.5227 40 24.1434 40H8.85661C7.47727 40 6.39159 40 5.51734 39.9283C4.62799 39.8567 3.88295 39.7067 3.2067 39.365C2.10122 38.8056 1.20247 37.913 0.639327 36.8149C0.295332 36.1433 0.142632 35.4032 0.0704771 34.5182C9.37668e-08 33.6515 0 32.5732 0 31.2032V23.7963C0 22.428 9.37668e-08 21.3496 0.0704771 20.4796C0.142632 19.5963 0.295332 18.8562 0.639327 18.1846C1.20247 17.0865 2.10122 16.1939 3.2067 15.6345C3.88295 15.2928 4.14304 15.0713 5.03407 14.9996C5.90832 14.9279 5.33276 17.12 6.71209 17.12M11.0716 23.993C11.0716 21.7296 13.5567 20.3329 15.5116 21.4963L21.3948 25.003C21.8288 25.2617 22.1881 25.6277 22.4375 26.0652C22.6869 26.5027 22.8179 26.997 22.8179 27.4998C22.8179 28.0025 22.6869 28.4968 22.4375 28.9343C22.1881 29.3718 21.8288 29.7378 21.3948 29.9965L15.5116 33.5032C13.5567 34.6666 11.0716 33.2699 11.0716 31.0065V23.993ZM14.6475 22.9263C14.4573 22.8132 14.2404 22.7521 14.0187 22.7493C13.7971 22.7466 13.5787 22.8023 13.3858 22.9107C13.1929 23.0191 13.0323 23.1764 12.9206 23.3666C12.8088 23.5567 12.7498 23.7729 12.7496 23.993V31.0065C12.7496 31.9732 13.8118 32.5715 14.6475 32.0732L20.5306 28.5664C20.7158 28.4557 20.869 28.2993 20.9754 28.1124C21.0818 27.9255 21.1377 27.7145 21.1377 27.4998C21.1377 27.2851 21.0818 27.074 20.9754 26.8871C20.869 26.7002 20.7158 26.5438 20.5306 26.4331L14.6475 22.9263Z" fill="#8C4DA5"/>
</svg>
