<svg width="44" height="44" viewBox="0 0 44 44" fill="none" xmlns="http://www.w3.org/2000/svg">
<circle cx="22" cy="22" r="22" fill="url(#paint0_radial_1_147)"/>
<path d="M29.275 18.6951L29.521 18.1291C29.9535 17.1278 30.7456 16.325 31.741 15.8791L32.5 15.5401C32.5921 15.4977 32.6701 15.4299 32.7248 15.3445C32.7794 15.2592 32.8085 15.1599 32.8085 15.0586C32.8085 14.9572 32.7794 14.858 32.7248 14.7727C32.6701 14.6873 32.5921 14.6194 32.5 14.5771L31.783 14.2581C30.7626 13.7995 29.9569 12.967 29.532 11.9321L29.278 11.3211C29.2408 11.2264 29.176 11.1452 29.092 11.0879C29.008 11.0306 28.9087 11 28.807 11C28.7053 11 28.606 11.0306 28.522 11.0879C28.438 11.1452 28.3732 11.2264 28.336 11.3211L28.083 11.9311C27.6585 12.9662 26.8532 13.799 25.833 14.2581L25.115 14.5781C25.0232 14.6206 24.9455 14.6884 24.891 14.7737C24.8365 14.8589 24.8076 14.9579 24.8076 15.0591C24.8076 15.1602 24.8365 15.2593 24.891 15.3445C24.9455 15.4297 25.0232 15.4976 25.115 15.5401L25.875 15.8781C26.8702 16.3244 27.6619 17.1276 28.094 18.1291L28.34 18.6951C28.52 19.1091 29.094 19.1091 29.275 18.6951ZM23.194 16.3401C23.468 16.7734 23.8427 17.0937 24.318 17.3011L24.883 17.5481C25.263 17.7141 25.571 17.9467 25.807 18.2461V23.0011C25.807 24.3272 25.2802 25.5989 24.3425 26.5366C23.4049 27.4743 22.1331 28.0011 20.807 28.0011C19.4809 28.0011 18.2091 27.4743 17.2715 26.5366C16.3338 25.5989 15.807 24.3272 15.807 23.0011V17.0011C15.807 16.0729 16.0653 15.1631 16.5531 14.3735C17.0408 13.5838 17.7388 12.9456 18.5687 12.5301C19.3986 12.1146 20.3278 11.9383 21.2523 12.0209C22.1767 12.1036 23.0599 12.4419 23.803 12.9981C23.563 13.1781 23.3597 13.3994 23.193 13.6621C22.9383 14.062 22.8046 14.527 22.808 15.0011C22.808 15.4851 22.936 15.9314 23.194 16.3401ZM11 24.9611L12.962 24.5691C13.3264 26.3815 14.307 28.0119 15.7373 29.1833C17.1676 30.3546 18.9593 30.9946 20.808 30.9946C22.6567 30.9946 24.4484 30.3546 25.8787 29.1833C27.309 28.0119 28.2896 26.3815 28.654 24.5691L30.616 24.9611C29.704 29.5461 25.66 33.0011 20.808 33.0011C15.956 33.0011 11.912 29.5461 11 24.9621" fill="white"/>
<defs>
<radialGradient id="paint0_radial_1_147" cx="0" cy="0" r="1" gradientUnits="userSpaceOnUse" gradientTransform="translate(22 22) rotate(90) scale(22)">
<stop stop-color="#7F61B1"/>
<stop offset="1" stop-color="#588F9F"/>
</radialGradient>
</defs>
</svg>
