<svg width="30" height="30" viewBox="0 0 30 30" fill="none" xmlns="http://www.w3.org/2000/svg">
<path fill-rule="evenodd" clip-rule="evenodd" d="M20.4545 10.9091C20.4545 12.3557 19.8799 13.7431 18.8569 14.766C17.834 15.789 16.4466 16.3636 15 16.3636C13.5534 16.3636 12.166 15.789 11.1431 14.766C10.1201 13.7431 9.54545 12.3557 9.54545 10.9091C9.54545 9.46246 10.1201 8.07507 11.1431 7.05214C12.166 6.02922 13.5534 5.45455 15 5.45455C16.4466 5.45455 17.834 6.02922 18.8569 7.05214C19.8799 8.07507 20.4545 9.46246 20.4545 10.9091ZM17.7273 10.9091C17.7273 11.6324 17.4399 12.3261 16.9285 12.8376C16.417 13.349 15.7233 13.6364 15 13.6364C14.2767 13.6364 13.583 13.349 13.0715 12.8376C12.5601 12.3261 12.2727 11.6324 12.2727 10.9091C12.2727 10.1858 12.5601 9.49208 13.0715 8.98062C13.583 8.46916 14.2767 8.18182 15 8.18182C15.7233 8.18182 16.417 8.46916 16.9285 8.98062C17.4399 9.49208 17.7273 10.1858 17.7273 10.9091Z" fill="#8657B5"/>
<path fill-rule="evenodd" clip-rule="evenodd" d="M15 0C6.71591 0 0 6.71591 0 15C0 23.2841 6.71591 30 15 30C23.2841 30 30 23.2841 30 15C30 6.71591 23.2841 0 15 0ZM2.72727 15C2.72727 17.85 3.69955 20.4736 5.32909 22.5573C6.47378 21.0547 7.95021 19.837 9.64314 18.9992C11.3361 18.1613 13.1997 17.7261 15.0886 17.7273C16.9532 17.7251 18.7937 18.1488 20.4697 18.966C22.1457 19.7832 23.613 20.9723 24.7595 22.4427C25.9411 20.8931 26.7366 19.0844 27.0803 17.1663C27.424 15.2481 27.306 13.2757 26.7361 11.4123C26.1662 9.54877 25.1608 7.84779 23.8029 6.45005C22.4451 5.05231 20.774 3.99799 18.9278 3.37433C17.0816 2.75067 15.1135 2.5756 13.1862 2.8636C11.2589 3.1516 9.4279 3.8944 7.84469 5.03053C6.26147 6.16666 4.97156 7.66346 4.08168 9.39709C3.19179 11.1307 2.72752 13.0513 2.72727 15ZM15 27.2727C12.1826 27.2773 9.4502 26.308 7.26545 24.5291C8.14474 23.2699 9.31526 22.2419 10.6774 21.5324C12.0395 20.823 13.5529 20.4532 15.0886 20.4545C16.6052 20.4532 18.1003 20.8138 19.4495 21.5063C20.7988 22.1989 21.9633 23.2034 22.8464 24.4364C20.6447 26.2732 17.8672 27.2772 15 27.2727Z" fill="#8657B5"/>
</svg>
