<svg width="28" height="29" viewBox="0 0 28 29" fill="none" xmlns="http://www.w3.org/2000/svg">
<path d="M27.6602 18.164L25.8646 16.2967C26.0932 14.9357 26.064 13.5448 25.7784 12.1943L27.5309 10.327C27.667 10.1777 27.7579 9.99393 27.7935 9.79644C27.829 9.59896 27.8077 9.39562 27.7321 9.20941C27.0039 7.4412 25.9301 5.83106 24.5717 4.47041C24.4388 4.33959 24.273 4.24579 24.0914 4.19858C23.9097 4.15136 23.7185 4.15242 23.5374 4.20163L20.8941 4.86651C20.0801 4.2905 19.1972 3.81538 18.2653 3.45188L17.6188 1.01873C17.5708 0.821383 17.4648 0.642341 17.3141 0.503967C17.1633 0.365593 16.9745 0.27402 16.7713 0.240686C15.876 0.0759545 14.9669 -0.00456993 14.0562 0.000200093C12.9166 0.00551732 11.7823 0.152866 10.6804 0.438734C10.4965 0.484253 10.3286 0.578014 10.1945 0.710037C10.0604 0.842061 9.96521 1.00741 9.91899 1.18848L9.22945 3.69237C8.45845 4.02915 7.7264 4.4465 7.04591 4.93724L4.43142 4.30066C4.24785 4.2534 4.0547 4.25608 3.87256 4.30839C3.69041 4.36071 3.52609 4.4607 3.39711 4.59773C1.96886 6.05885 0.876349 7.8053 0.193631 9.71867C0.127423 9.90361 0.113841 10.1029 0.154354 10.2949C0.194867 10.4868 0.287932 10.6643 0.423477 10.8079L2.23351 12.6611C2.14158 13.2562 2.09369 13.855 2.08986 14.4577C2.08986 14.882 2.08986 15.3064 2.16169 15.7308L0.279823 17.7962C0.153181 17.9335 0.0653121 18.1011 0.0249822 18.2823C-0.0153477 18.4635 -0.00672943 18.652 0.0499773 18.8289C0.640308 20.6993 1.61865 22.4286 2.92305 23.9074C3.05424 24.0593 3.22625 24.1717 3.41935 24.2317C3.61245 24.2918 3.81883 24.297 4.01482 24.2469L6.48566 23.6244C7.35124 24.3404 8.31936 24.9267 9.35874 25.3644L10.077 27.8966C10.1323 28.0802 10.2358 28.2461 10.3771 28.3778C10.5183 28.5094 10.6923 28.602 10.8815 28.6463C11.9172 28.8769 12.9774 28.9958 14.0419 29C14.8904 28.9906 15.7331 28.9104 16.5702 28.7595C16.7685 28.725 16.953 28.6365 17.1028 28.504C17.2526 28.3715 17.3617 28.2002 17.4177 28.0098L18.0929 25.619C19.3333 25.1823 20.4894 24.5413 21.5118 23.7235L24.0402 24.2893C24.2298 24.3327 24.4278 24.324 24.6127 24.2641C24.7977 24.2042 24.9623 24.0955 25.0888 23.9498C26.3486 22.5732 27.3244 20.9685 27.9619 19.2249C28.0135 19.0378 28.0127 18.8403 27.9596 18.6535C27.9065 18.4667 27.803 18.2976 27.6602 18.164ZM14.1711 19.9606C13.4452 19.9739 12.7237 19.8449 12.0489 19.5811C11.374 19.3172 10.7592 18.9237 10.2403 18.4236C9.7214 17.9234 9.30873 17.3266 9.02634 16.6679C8.74396 16.0091 8.5975 15.3017 8.59549 14.5866C8.59349 13.8716 8.73599 13.1633 9.01469 12.5031C9.29338 11.8428 9.70271 11.2438 10.2188 10.7408C10.7349 10.2379 11.3475 9.84105 12.0209 9.57353C12.6942 9.306 13.4149 9.17308 14.141 9.18253C15.5926 9.17878 16.9862 9.74302 18.0153 10.7511C19.0444 11.7593 19.6247 13.1287 19.6285 14.5581C19.6324 15.9875 19.0594 17.3599 18.0356 18.3734C17.0119 19.3868 15.6213 19.9582 14.1697 19.962" fill="white"/>
</svg>
